<svg width="512" height="512" viewBox="0 0 24 24" fill="none" xmlns="http://www.w3.org/2000/svg">
  <path 
    d="M22 16.92V19.92C22 21.02 21.1 21.92 20 21.92C10.61 21.92 3 14.31 3 4.92C3 3.82 3.9 2.92 5 2.92H8C9.1 2.92 10 3.82 10 4.92C10 5.86 10.17 6.77 10.48 7.63C10.68 8.16 10.55 8.76 10.14 9.17L8.54 10.77C9.97 13.68 12.35 16.05 15.26 17.48L16.86 15.88C17.27 15.47 17.87 15.34 18.4 15.54C19.26 15.85 20.17 16.02 21.11 16.02C22.21 16.02 23.11 16.92 23.11 18.02" 
    stroke="white" 
    stroke-width="2.5" 
    stroke-linecap="round" 
    stroke-linejoin="round"
  />
</svg>
