<svg width="18" height="19" fill="none" xmlns="http://www.w3.org/2000/svg"><path d="M4.067 5.707a.857.857 0 00-.858.858v1.07l5.245 3.845c.453.332 1.07.332 1.523 0l5.245-3.845v-1.07a.857.857 0 00-.858-.858H4.067zM3.21 8.699v4.73c0 .475.384.858.858.858h10.297a.857.857 0 00.858-.858V8.7l-4.738 3.473a2.149 2.149 0 01-2.537 0L3.21 8.698zm-.858-2.134c0-.947.77-1.716 1.716-1.716h10.297c.947 0 1.716.77 1.716 1.716v6.864c0 .947-.77 1.716-1.716 1.716H4.067c-.946 0-1.716-.77-1.716-1.716V6.565z" fill="#000"/></svg>