<svg xmlns="http://www.w3.org/2000/svg" viewBox="0 0 1001 1001" fill="currentColor" aria-hidden="true">
  <path d="M584 625H420Q403 625 391.0 613.0Q379 601 379 584V420Q379 403 391.0 391.0Q403 379 420 379H584Q601 379 613.0 391.0Q625 403 625 420V584Q625 601 613.0 613.0Q601 625 584 625ZM603 420Q603 412 597.5 406.5Q592 401 584 401H420Q412 401 406.5 406.5Q401 412 401 420V584Q401 592 406.5 597.5Q412 603 420 603H584Q592 603 597.5 597.5Q603 592 603 584ZM522 563H481V522H440V481H481V440H522V481H563V522H522ZM418 708H613Q616 708 621 705L623 704Q692 664 778 610L780 609Q792 602 807 601Q824 601 835.5 612.5Q847 624 848.0 639.5Q849 655 840 670L839 672Q742 827 725 839Q704 853 662 881L626 905Q616 912 603 912H443L378 991L256 885L386 723Q398 708 418 708ZM374 939 415 889 426 876H603Q604 876 606 875L647 848Q685 823 703 810Q722 790 806 655L809 651Q812 646 812.0 643.0Q812 640 810.5 638.5Q809 637 807 638Q803 638 799 640L795 643Q719 690 658 725Q672 741 670.0 761.0Q668 781 653 795Q639 807 621 807H509V770H620Q626 771 630.0 767.0Q634 763 634.0 757.5Q634 752 630.5 748.0Q627 744 621 744H418Q416 744 415 746L306 880ZM279 162Q300 148 342 120L378 96Q388 89 401 89H561L626 10L748 116L618 278Q606 293 586 293H391Q388 293 383 296L381 297Q312 337 226 391L224 392Q212 399 197 399Q180 400 168.5 388.5Q157 377 156.0 361.5Q155 346 164 331L165 329Q262 174 279 162ZM192 359Q192 361 193.5 362.0Q195 363 197 363Q202 363 205 361L209 358Q285 311 346 276Q333 260 334.5 239.5Q336 219 351 206Q365 194 383 194H495V230H383Q378 230 374.0 234.0Q370 238 370.0 243.5Q370 249 374.0 253.0Q378 257 383 257H586Q588 257 589 255L698 120L630 62L578 125H401Q400 125 398 126L365 148Q322 176 301 191Q282 211 198 346L195 350Q191 356 192 359ZM522 563H481V522H440V481H481V440H522V481H563V522H522Z" transform="translate(0,1001) scale(1,-1)" />
</svg>
